<svg xmlns="http://www.w3.org/2000/svg" id="Layer_2" viewBox="0 0 1309.08 436.08"><defs><style>.cls-1{fill:#fff;}.cls-2{fill:#4d4d4d;}</style></defs><g id="_&#xCE;&#xD3;&#xC8;_1"><path class="cls-2" d="m65.49,0h1178.11c36.14,0,65.49,29.34,65.49,65.49v305.1c0,36.14-29.34,65.49-65.49,65.49H65.49c-36.14,0-65.49-29.34-65.49-65.49V65.49C0,29.34,29.34,0,65.49,0Z"></path><rect x="441.48" y="-431.53" width="426.13" height="1299.14" rx="60.51" ry="60.51" transform="translate(872.58 -436.5) rotate(90)"></rect><path class="cls-1" d="m128.73,218.69c-.24-20.62,4.68-39.55,18.34-55.41,16.04-18.62,35.94-25.59,60-18.56,6.5,1.9,13,3.85,19.31,6.28,5.43,2.09,10.36,1.54,15.65-.52,13.22-5.17,26.63-9.78,41.14-9.15,18.01.78,32.85,7.88,44.14,22.18,1.99,2.52,1.79,3.72-.96,5.42-33.91,20.95-32.74,75.02,4.96,95.4,3.81,2.06,4.69,3.76,3.13,7.86-6.9,18.1-16.75,34.28-29.58,48.8-10.93,12.36-23.65,16.44-39.3,10.34-3.78-1.47-7.77-2.41-11.59-3.78-12.03-4.32-23.88-3.79-35.77.67-5.34,2-10.94,3.29-16.39,5.04-7.76,2.49-14.84.9-21.59-3.24-4.29-2.64-7.95-6.02-11.23-9.76-25.48-29.08-39.12-62.85-40.25-101.56Z"></path><path class="cls-1" d="m283.25,86.92c-1.91,21.73-12.22,38.05-31.38,48.56-4.97,2.73-10.48,3.53-16.17,3.49-2.95-.02-3.93-1.05-3.86-3.96.1-4.23.24-8.41,1.26-12.54,5.04-20.41,25.32-39.14,45.16-42.12,4.09-.61,5.68.11,5.01,4.31-.12.73-.02,1.5-.02,2.26Z"></path><path class="cls-1" d="m424.46,91.89c5.49-.83,12.01-1.45,19.15-1.45,12.94,0,22.15,3,28.26,8.69,6.21,5.69,9.83,13.77,9.83,25.05s-3.52,20.7-10.04,27.12c-6.52,6.52-17.28,10.04-30.84,10.04-6.42,0-11.8-.31-16.35-.83v-68.62Zm9,61.69c2.28.41,5.59.52,9.11.52,19.25,0,29.7-10.76,29.7-29.6.1-16.46-9.21-26.91-28.26-26.91-4.66,0-8.18.41-10.56.93v55.06Z"></path><path class="cls-1" d="m533.85,135.26c0,18.53-12.83,26.6-24.94,26.6-13.56,0-24.01-9.94-24.01-25.77,0-16.77,10.97-26.6,24.84-26.6s24.12,10.45,24.12,25.77Zm-39.74.52c0,10.97,6.31,19.25,15.21,19.25s15.21-8.18,15.21-19.46c0-8.49-4.24-19.25-15.01-19.25s-15.42,9.94-15.42,19.46Z"></path><path class="cls-1" d="m545.91,110.63l6.62,25.46c1.45,5.59,2.79,10.76,3.73,15.94h.31c1.14-5.07,2.79-10.45,4.45-15.84l8.18-25.56h7.66l7.76,25.05c1.86,6,3.31,11.28,4.45,16.35h.31c.83-5.07,2.17-10.35,3.83-16.25l7.14-25.15h9l-16.15,50.09h-8.28l-7.66-23.91c-1.76-5.59-3.21-10.56-4.45-16.46h-.21c-1.24,6-2.79,11.18-4.55,16.56l-8.07,23.81h-8.28l-15.11-50.09h9.32Z"></path><path class="cls-1" d="m614.15,124.18c0-5.17-.1-9.42-.41-13.56h8.07l.52,8.28h.21c2.48-4.76,8.28-9.42,16.56-9.42,6.93,0,17.7,4.14,17.7,21.32v29.91h-9.11v-28.88c0-8.07-3-14.8-11.59-14.8-6,0-10.66,4.24-12.21,9.32-.41,1.14-.62,2.69-.62,4.24v30.12h-9.11v-36.54Z"></path><path class="cls-1" d="m670.26,87.23h9.11v73.49h-9.11v-73.49Z"></path><path class="cls-1" d="m737.7,135.26c0,18.53-12.83,26.6-24.94,26.6-13.56,0-24.01-9.94-24.01-25.77,0-16.77,10.97-26.6,24.84-26.6s24.12,10.45,24.12,25.77Zm-39.74.52c0,10.97,6.31,19.25,15.21,19.25s15.21-8.18,15.21-19.46c0-8.49-4.24-19.25-15.01-19.25s-15.42,9.94-15.42,19.46Z"></path><path class="cls-1" d="m775.6,160.72l-.72-6.31h-.31c-2.79,3.93-8.18,7.45-15.32,7.45-10.14,0-15.32-7.14-15.32-14.39,0-12.11,10.76-18.73,30.12-18.63v-1.03c0-4.14-1.14-11.59-11.38-11.59-4.66,0-9.52,1.45-13.04,3.73l-2.07-6c4.14-2.69,10.14-4.45,16.46-4.45,15.32,0,19.04,10.45,19.04,20.49v18.73c0,4.35.21,8.59.83,12.01h-8.28Zm-1.35-25.56c-9.94-.21-21.22,1.55-21.22,11.28,0,5.9,3.93,8.69,8.59,8.69,6.52,0,10.66-4.14,12.11-8.38.31-.93.52-1.97.52-2.9v-8.69Z"></path><path class="cls-1" d="m837.36,87.23v60.55c0,4.45.1,9.52.41,12.94h-8.18l-.41-8.69h-.21c-2.79,5.59-8.9,9.83-17.08,9.83-12.11,0-21.42-10.25-21.42-25.46-.1-16.66,10.25-26.91,22.46-26.91,7.66,0,12.83,3.62,15.11,7.66h.21v-29.91h9.11Zm-9.11,43.78c0-1.14-.1-2.69-.41-3.83-1.35-5.8-6.31-10.56-13.14-10.56-9.42,0-15.01,8.28-15.01,19.35,0,10.14,4.97,18.53,14.8,18.53,6.11,0,11.7-4.04,13.35-10.87.31-1.24.41-2.48.41-3.93v-8.69Z"></path><path class="cls-1" d="m935.01,135.26c0,18.53-12.83,26.6-24.94,26.6-13.56,0-24.01-9.94-24.01-25.77,0-16.77,10.97-26.6,24.84-26.6s24.12,10.45,24.12,25.77Zm-39.74.52c0,10.97,6.31,19.25,15.21,19.25s15.21-8.18,15.21-19.46c0-8.49-4.24-19.25-15.01-19.25s-15.42,9.94-15.42,19.46Z"></path><path class="cls-1" d="m944.5,124.18c0-5.17-.1-9.42-.41-13.56h8.07l.52,8.28h.21c2.48-4.76,8.28-9.42,16.56-9.42,6.93,0,17.7,4.14,17.7,21.32v29.91h-9.11v-28.88c0-8.07-3-14.8-11.59-14.8-6,0-10.66,4.24-12.21,9.32-.41,1.14-.62,2.69-.62,4.24v30.12h-9.11v-36.54Z"></path><path class="cls-1" d="m1048.46,96.24v14.39h13.04v6.93h-13.04v27.01c0,6.21,1.76,9.73,6.83,9.73,2.38,0,4.14-.31,5.28-.62l.41,6.83c-1.76.72-4.55,1.24-8.07,1.24-4.24,0-7.66-1.35-9.83-3.83-2.59-2.69-3.52-7.14-3.52-13.04v-27.32h-7.76v-6.93h7.76v-12.01l8.9-2.38Z"></path><path class="cls-1" d="m1069.75,87.23h9.11v31.26h.21c1.45-2.59,3.73-4.86,6.52-6.42,2.69-1.55,5.9-2.59,9.31-2.59,6.73,0,17.49,4.14,17.49,21.42v29.81h-9.11v-28.77c0-8.07-3-14.9-11.59-14.9-5.9,0-10.56,4.14-12.21,9.11-.52,1.24-.62,2.59-.62,4.35v30.22h-9.11v-73.49Z"></path><path class="cls-1" d="m1128.62,137.33c.21,12.32,8.07,17.39,17.18,17.39,6.52,0,10.45-1.14,13.87-2.59l1.55,6.52c-3.21,1.45-8.69,3.11-16.66,3.11-15.42,0-24.63-10.14-24.63-25.25s8.9-27.01,23.5-27.01c16.35,0,20.7,14.39,20.7,23.6,0,1.86-.21,3.31-.31,4.24h-35.19Zm26.7-6.52c.1-5.8-2.38-14.8-12.63-14.8-9.21,0-13.25,8.49-13.97,14.8h26.6Z"></path><path class="cls-1" d="m444.34,278.73l-13.18,39.91h-16.94l43.11-126.9h19.77l43.3,126.9h-17.51l-13.56-39.91h-45Zm41.61-12.8l-12.43-36.53c-2.82-8.28-4.71-15.82-6.59-23.16h-.38c-1.88,7.53-3.95,15.25-6.4,22.97l-12.43,36.71h38.22Z"></path><path class="cls-1" d="m537.91,257.27c0-11.67-.38-21.09-.75-29.75h14.87l.75,15.63h.38c6.78-11.11,17.51-17.7,32.38-17.7,22.03,0,38.6,18.64,38.6,46.32,0,32.76-19.96,48.95-41.42,48.95-12.05,0-22.59-5.27-28.05-14.31h-.38v49.52h-16.38v-98.66Zm16.38,24.29c0,2.45.38,4.71.75,6.78,3.01,11.48,12.99,19.39,24.85,19.39,17.51,0,27.68-14.31,27.68-35.21,0-18.26-9.6-33.89-27.11-33.89-11.3,0-21.84,8.1-25.04,20.52-.56,2.07-1.13,4.52-1.13,6.78v15.63Z"></path><path class="cls-1" d="m645.04,257.27c0-11.67-.38-21.09-.75-29.75h14.87l.75,15.63h.38c6.78-11.11,17.51-17.7,32.38-17.7,22.03,0,38.6,18.64,38.6,46.32,0,32.76-19.96,48.95-41.42,48.95-12.05,0-22.59-5.27-28.05-14.31h-.38v49.52h-16.38v-98.66Zm16.38,24.29c0,2.45.38,4.71.75,6.78,3.01,11.48,12.99,19.39,24.85,19.39,17.51,0,27.68-14.31,27.68-35.21,0-18.26-9.6-33.89-27.11-33.89-11.3,0-21.84,8.1-25.04,20.52-.56,2.07-1.13,4.52-1.13,6.78v15.63Z"></path><path class="cls-1" d="m775.78,298.69c7.34,4.52,18.07,8.28,29.37,8.28,16.76,0,26.55-8.85,26.55-21.65,0-11.86-6.78-18.64-23.91-25.23-20.71-7.34-33.51-18.07-33.51-35.96,0-19.77,16.38-34.45,41.04-34.45,12.99,0,22.4,3.01,28.05,6.21l-4.52,13.37c-4.14-2.26-12.61-6.02-24.1-6.02-17.32,0-23.91,10.35-23.91,19.02,0,11.86,7.72,17.7,25.23,24.48,21.46,8.28,32.38,18.64,32.38,37.28,0,19.58-14.5,36.53-44.43,36.53-12.24,0-25.61-3.58-32.38-8.1l4.14-13.74Z"></path><path class="cls-1" d="m892.34,201.35v26.17h23.72v12.61h-23.72v49.14c0,11.3,3.2,17.7,12.43,17.7,4.33,0,7.53-.56,9.6-1.13l.75,12.43c-3.2,1.32-8.28,2.26-14.69,2.26-7.72,0-13.93-2.45-17.89-6.97-4.71-4.9-6.4-12.99-6.4-23.72v-49.7h-14.12v-12.61h14.12v-21.84l16.19-4.33Z"></path><path class="cls-1" d="m1018.68,272.33c0,33.7-23.35,48.39-45.37,48.39-24.66,0-43.68-18.07-43.68-46.88,0-30.5,19.96-48.39,45.19-48.39s43.87,19.02,43.87,46.88Zm-72.3.94c0,19.96,11.48,35.02,27.68,35.02s27.68-14.87,27.68-35.4c0-15.44-7.72-35.02-27.3-35.02s-28.05,18.07-28.05,35.4Z"></path><path class="cls-1" d="m1040.91,255.95c0-10.73-.19-19.96-.75-28.43h14.5l.57,17.89h.75c4.14-12.24,14.12-19.96,25.23-19.96,1.88,0,3.2.19,4.71.56v15.63c-1.69-.38-3.39-.56-5.65-.56-11.67,0-19.96,8.85-22.22,21.27-.38,2.26-.75,4.9-.75,7.72v48.57h-16.38v-62.69Z"></path><path class="cls-1" d="m1115.79,276.1c.38,22.4,14.68,31.63,31.25,31.63,11.86,0,19.02-2.07,25.23-4.71l2.82,11.86c-5.84,2.64-15.82,5.65-30.31,5.65-28.05,0-44.81-18.45-44.81-45.94s16.19-49.14,42.74-49.14c29.75,0,37.65,26.17,37.65,42.93,0,3.39-.38,6.02-.56,7.72h-64.01Zm48.57-11.86c.19-10.54-4.33-26.92-22.97-26.92-16.76,0-24.1,15.44-25.42,26.92h48.39Z"></path></g></svg>