<svg xmlns="http://www.w3.org/2000/svg" id="Layer_2" viewBox="0 0 1309.08 436.08"><defs><style>.cls-1{fill:#00ef77;}.cls-2{fill:#00d8ff;}.cls-3{fill:#fff;}.cls-4{fill:red;}.cls-5{fill:#fec900;}.cls-6{fill:#4d4d4d;}.cls-7{opacity:.54;}</style></defs><g id="_&#xCE;&#xD3;&#xC8;_1"><rect class="cls-6" width="1309.08" height="436.08" rx="65.49" ry="65.49"></rect><rect x="441.48" y="-431.53" width="426.13" height="1299.14" rx="60.51" ry="60.51" transform="translate(872.58 -436.5) rotate(90)"></rect><polygon class="cls-3" points="499.93 138.55 499.93 147.84 462.84 147.84 462.84 83.94 498.57 83.94 498.57 93.22 473.4 93.22 473.4 109.93 497.21 109.93 497.21 119.12 473.4 119.12 473.4 138.55 499.93 138.55"></polygon><polygon class="cls-3" points="551 83.94 551 93.32 532.28 93.32 532.28 147.84 521.63 147.84 521.63 93.32 503 93.32 503 83.94 551 83.94"></polygon><polygon class="cls-3" points="638.31 83.94 638.31 93.32 619.59 93.32 619.59 147.84 608.94 147.84 608.94 93.32 590.31 93.32 590.31 83.94 638.31 83.94"></polygon><rect class="cls-3" x="575.09" y="83.94" width="10.56" height="63.9"></rect><path class="cls-3" d="m712.6,92.03c-5.68-5.95-13.58-9.09-22.84-9.09-19.07,0-32.39,13.77-32.39,33.5s12.91,32.41,31.39,32.41c8.99,0,17.1-3.05,22.85-8.6,6.24-6.01,9.54-14.66,9.54-24.99,0-9.34-2.96-17.37-8.55-23.22Zm-23.34,47.71c-13.75,0-20.01-12.17-20.01-23.48,0-12.05,6.22-24.21,20.11-24.21s20.01,12.22,20.01,23.57c0,12.01-6.22,24.12-20.11,24.12Z"></path><path class="cls-3" d="m776.82,83.94v63.9h-10.06l-19.83-31.7c-3.69-5.9-6.63-10.93-8.99-15.45.25,5.83.35,11.9.35,19.66v27.5h-10.1v-63.9h10.69l20.02,31.61c3.16,4.99,5.89,9.72,8.27,14.33-.36-6.2-.45-12.24-.45-18.98v-26.95h10.11Z"></path><path class="cls-3" d="m1037.77,188.84h17.18v121.52h-17.18v-121.52Z"></path><path class="cls-3" d="m515.96,252.06c0,11.24-1.07,25.68-9.45,37.74-.76,1.09-1.56,2.17-2.38,3.21-5.82,7.36-12.95,13.17-21.21,17.27-8.6,4.27-17.95,6.44-27.79,6.44-8.72,0-17.19-1.71-25.17-5.08-7.7-3.26-14.61-7.92-20.55-13.85-5.93-5.93-10.59-12.85-13.85-20.55-3.37-7.98-5.08-16.44-5.08-25.17s1.71-17.19,5.08-25.17c3.26-7.7,7.92-14.61,13.85-20.55,5.94-5.94,12.85-10.6,20.55-13.85,7.98-3.37,16.44-5.08,25.17-5.08,16.95,0,32.78,6.57,44.57,18.49l-13.16,13.02c-8.29-8.38-19.45-13-31.41-13-25.44,0-46.14,20.7-46.14,46.14s20.7,46.13,46.14,46.13c13.73,0,25.97-5.92,34.47-16.67.59-.74,1.16-1.51,1.7-2.29,2.59-3.73,4.29-8.16,5.23-13.91h-41.4v-18.52h60.62c.13,1.74.2,3.5.2,5.25Z"></path><path class="cls-3" d="m455.25,115.67c0,5.51-.53,12.6-4.64,18.51-.37.54-.76,1.06-1.17,1.57-2.85,3.61-6.35,6.46-10.4,8.47-4.22,2.09-8.8,3.16-13.63,3.16-4.28,0-8.43-.84-12.34-2.49-3.78-1.6-7.17-3.88-10.08-6.79-2.91-2.91-5.2-6.3-6.79-10.08-1.65-3.91-2.49-8.07-2.49-12.34s.84-8.43,2.49-12.34c1.6-3.78,3.88-7.17,6.79-10.08,2.91-2.91,6.3-5.2,10.08-6.79,3.91-1.65,8.07-2.49,12.34-2.49,8.31,0,16.08,3.22,21.86,9.07l-6.46,6.39c-4.07-4.11-9.54-6.37-15.41-6.37-12.48,0-22.63,10.15-22.63,22.63s10.15,22.63,22.63,22.63c6.73,0,12.74-2.9,16.91-8.18.29-.36.57-.74.83-1.12,1.27-1.83,2.1-4,2.57-6.82h-20.3v-9.08h29.73c.07.85.1,1.72.1,2.58Z"></path><path class="cls-3" d="m564.77,317.85c-11.16,0-21.63-4.54-29.47-12.78-7.73-8.12-11.99-18.87-11.99-30.29s4.26-22.18,11.99-30.29c7.85-8.24,18.31-12.78,29.47-12.78s21.63,4.54,29.47,12.78c7.73,8.12,11.99,18.87,11.99,30.29s-4.26,22.18-11.99,30.29c-7.85,8.24-18.31,12.78-29.47,12.78Zm0-67.62c-12.65,0-22.94,11.01-22.94,24.55s10.29,24.55,22.94,24.55,22.94-11.01,22.94-24.55-10.29-24.55-22.94-24.55Z"></path><path class="cls-3" d="m656.32,317.85c-11.16,0-21.63-4.54-29.47-12.78-7.73-8.12-11.99-18.87-11.99-30.29s4.26-22.18,11.99-30.29c7.85-8.24,18.31-12.78,29.47-12.78s21.63,4.54,29.47,12.78c7.73,8.12,11.99,18.87,11.99,30.29s-4.26,22.18-11.99,30.29c-7.85,8.24-18.31,12.78-29.47,12.78Zm0-67.62c-12.65,0-22.94,11.01-22.94,24.55s10.29,24.55,22.94,24.55,22.94-11.01,22.94-24.55-10.29-24.55-22.94-24.55Z"></path><rect class="cls-3" x="798.11" y="192.27" width="18.52" height="121.96"></rect><path class="cls-3" d="m882.31,292.05c-3.64,4.15-11.32,7.29-17.85,7.29-6.92,0-14.58-5.87-18.57-11.57l36.22-15.09h0l.06-.02,20.75-8.6c-.3-1.23-.2-.5-.59-1.71-2.42-7.35-6.58-14.12-12-19.43-7.36-7.22-16.55-11.19-25.87-11.19-10.9,0-21.11,4.58-28.74,12.9-7.42,8.1-11.51,18.81-11.51,30.16s4.09,22.07,11.51,30.16c7.63,8.32,17.84,12.9,28.74,12.9,11.87,0,24.64-5.46,31.77-13.59,1.91-2.17,2.76-3.44,4.2-5.98l-15.25-10.28c-.83,1.46-1.79,2.82-2.87,4.05Zm-17.85-41.82c5.17,0,9.86,2.63,13.55,6.53l-35.13,14.99c1.33-12.11,10.49-21.52,21.57-21.52Z"></path><path class="cls-3" d="m777.27,244.49c-2.78-2.92-5.89-5.37-9.25-7.32-6.11-3.56-13.02-5.45-20.23-5.45-11.16,0-21.63,4.54-29.47,12.78-7.73,8.12-11.98,18.87-11.98,30.29s4.25,22.18,11.98,30.29c7.85,8.24,18.31,12.78,29.47,12.78,7.21,0,14.12-1.89,20.23-5.45v3.3c0,2.39-.58,4.74-1.69,6.81-2.94,5.5-7.97,12.06-15.22,12.06-14.97,0-20.59-5.42-24.43-13.57l-16.8,7.9c7.67,16.31,21.16,24.23,41.23,24.23,12.83,0,24.05-7.77,31.6-21.87,2.54-4.75,3.88-10.13,3.88-15.57v-56.16c-2.02-5.57-5.17-10.69-9.32-15.05Zm-29.47,54.85c-12.65,0-22.94-11.02-22.94-24.55s10.29-24.55,22.94-24.55c8.74,0,16.35,5.26,20.23,12.97,1.73,3.45,2.72,7.39,2.72,11.58s-.98,8.13-2.72,11.58c-3.87,7.71-11.49,12.97-20.23,12.97Z"></path><path class="cls-3" d="m786.59,234.11v25.44c-2.02-5.57-5.17-10.69-9.32-15.05-2.78-2.92-5.89-5.37-9.25-7.32v-3.06h18.57Z"></path><polygon class="cls-3" points="1218.86 232.94 1171.6 347.36 1154.64 347.34 1172.21 305.5 1140.83 232.94 1157.08 232.94 1180.21 286.43 1202.67 232.94 1218.86 232.94"></polygon><path class="cls-3" d="m990.51,188.84h-34.15c-1.15,0-2.29.06-3.42.17h-8.35v121.36h15.58v-46.59h30.34c19.47,0,35.31-15.84,35.31-35.31v-4.31c0-19.47-15.84-35.31-35.31-35.31Zm19.73,39.62c0,10.88-8.85,19.73-19.73,19.73h-30.34v-43.77h30.34c10.88,0,19.73,8.85,19.73,19.73v4.31Z"></path><g class="cls-7"><path class="cls-3" d="m1136.13,270.11v.47l.24-.27c-.06-.05-.14-.12-.24-.2Z"></path></g><path class="cls-3" d="m1124.94,239.47c-7.2-6.73-16.85-9.9-27.92-9.16-10.22.68-19.01,5.39-25.43,13.61-1.4,1.79-2.54,3.57-3.45,5.19-2.1,3.72-3,6.63-3.13,7.07l13.67,4.04c.02-.06.67-2.19,2.29-4.87,2.64-4.37,7.84-10.21,16.99-10.82,7.03-.47,12.98,1.38,17.23,5.35,3.6,3.37,5.84,8.22,6.26,13.51-.45-.13-.91-.25-1.38-.37-3.29-.86-11.92-2.87-21.01-2.94h-.48c-10.42,0-18.28,2.58-23.37,7.67-6.35,6.35-9.21,15.73-7.49,24.49,1.53,7.77,6.55,13.96,13.76,16.97,4.56,1.91,9.11,2.86,13.71,2.86,3.89,0,7.82-.68,11.83-2.03,4.67-1.57,9.48-4.08,14.51-7.57v7.9h14.26v-45.09c0-9.94-3.96-19.35-10.86-25.8Zm-3.4,44.84c-17.52,15.54-27.28,14.79-34.55,11.74-3.58-1.5-4.84-4.4-5.27-6.58-.81-4.09.6-8.66,3.58-11.65,2.26-2.26,6.97-3.49,13.29-3.49h.37c7.49.06,14.74,1.75,17.51,2.48,2,.52,3.68,1.09,5.07,1.63v5.86Z"></path><path class="cls-1" d="m256.97,176.79l-51.74-29.57-94.2-53.84c-5.62-3.21-12.06-2.01-16.27,1.8l122.28,121.18,39.94-39.58Z"></path><path class="cls-2" d="m94.76,95.18c-2.74,2.48-4.54,6.07-4.54,10.28v222.66c0,3.98,1.61,7.41,4.1,9.87l122.71-121.62-122.28-121.18Z"></path><path class="cls-4" d="m94.32,337.98c4.19,4.14,10.9,5.53,16.71,2.21l94.2-53.84,52.27-29.87-40.48-40.11-122.71,121.62Z"></path><path class="cls-5" d="m310.22,207.22l-53.25-30.43-39.94,39.58,40.48,40.11,52.71-30.12c7.4-4.23,7.4-14.9,0-19.14Z"></path></g></svg>