<svg xmlns="http://www.w3.org/2000/svg" id="Layer_2" viewBox="0 0 1309.08 436.08"><defs><style>.cls-1{fill:#fff;}.cls-2{fill:#c8102e;}.cls-3{fill:#4d4d4d;}</style></defs><g id="_&#xCE;&#xD3;&#xC8;_1"><path class="cls-3" d="m65.49,0h1178.11c36.14,0,65.49,29.34,65.49,65.49v305.1c0,36.14-29.34,65.49-65.49,65.49H65.49c-36.14,0-65.49-29.34-65.49-65.49V65.49C0,29.34,29.34,0,65.49,0Z"></path><rect x="441.48" y="-431.53" width="426.13" height="1299.14" rx="60.51" ry="60.51" transform="translate(872.58 -436.5) rotate(90)"></rect><path class="cls-1" d="m443.49,134.54v9.82h-39.03v-60.89h37.57v9.82h-24.14v14.73h22.78v9.58h-22.78v16.95h25.59Z"></path><path class="cls-1" d="m480.35,113.32l18.7,31.04h-15.07l-6.26-11.8c-2.36-4.2-3.99-7.44-5.72-11.09h-.27c-1.45,3.64-3.09,6.97-5.17,11.17l-5.72,11.72h-14.7l18.06-30.96-17.43-29.93h14.98l6.26,11.96c1.82,3.48,3.18,6.57,4.81,9.98h.18c1.63-3.8,2.81-6.57,4.54-10.06l5.9-11.88h14.79l-17.88,29.85Z"></path><path class="cls-1" d="m504.48,144.36v-60.1c4.36-.71,10.35-1.27,18.06-1.27,8.8,0,15.43,1.5,19.88,4.83,4.17,3.09,6.72,8,6.72,13.62,0,16.71-15.97,20.43-26.41,20.43-1.91,0-3.54-.08-4.9-.32v22.81h-13.34Zm13.34-31.99c1.27.24,2.72.32,4.72.32,8.35,0,13.25-4.12,13.25-10.69s-4.72-9.9-12.16-9.9c-2.72,0-4.63.24-5.81.48v19.8Z"></path><path class="cls-1" d="m591.31,134.46v9.9h-38.39v-60.89h13.43v51h24.96Z"></path><path class="cls-1" d="m651.24,113.16c0,21.22-12.34,32.07-29.68,32.07-18.42,0-28.86-13.46-28.86-31.12s11.53-31.6,29.77-31.6c19.33,0,28.77,14.41,28.77,30.65Zm-44.47.71c0,11.96,5.35,21.78,15.25,21.78s15.16-9.74,15.16-22.01c0-11.17-4.81-21.54-15.07-21.54s-15.34,10.61-15.34,21.78Z"></path><path class="cls-1" d="m661.5,84.25c4.63-.71,11.16-1.27,17.97-1.27,8.8,0,26.59.95,26.59,17.26,0,7.44-5.45,12.91-11.98,15.12v.24c4.9,1.66,7.62,5.78,9.26,11.96,2,7.21,3.81,14.49,5.17,16.79h-13.8c-1-1.74-2.72-7.05-4.36-14.41-1.82-7.84-4.63-10.29-10.98-10.29h-4.54v24.71h-13.34v-60.1Zm13.34,26.69h5.54c7.62,0,12.25-3.88,12.25-9.66,0-7.84-6.72-9.34-11.62-9.34-2.99,0-5.08.16-6.17.48v18.53Z"></path><path class="cls-1" d="m756.25,134.54v9.82h-39.03v-60.89h37.57v9.82h-24.14v14.73h22.78v9.58h-22.78v16.95h25.59Z"></path><path class="cls-1" d="m792.23,144.36v-60.89h13.43v60.89h-13.43Z"></path><path class="cls-1" d="m862.23,83.46v10.14h-17.24v50.76h-13.43v-50.76h-17.15v-10.14h47.83Z"></path><path class="cls-1" d="m950.09,113.16c0,21.22-12.34,32.07-29.68,32.07-18.42,0-28.86-13.46-28.86-31.12s11.53-31.6,29.77-31.6c19.33,0,28.77,14.41,28.77,30.65Zm-44.47.71c0,11.96,5.35,21.78,15.25,21.78s15.16-9.74,15.16-22.01c0-11.17-4.81-21.54-15.07-21.54s-15.34,10.61-15.34,21.78Z"></path><path class="cls-1" d="m1014.19,83.46v60.89h-13.43l-14.98-25.18c-3.72-6.26-7.81-13.78-10.71-20.43h-.36c.54,7.52.82,16.07.82,26.92v18.69h-12.16v-60.89h14.52l14.7,24.71c3.72,6.1,7.62,13.54,10.44,19.88h.18c-.82-7.76-1.18-16.39-1.18-26.29v-18.29h12.16Z"></path><path class="cls-1" d="m944.51,294.83v19.76h-12.23c-7.18,0-12.85-2.22-16.85-6.58-3.94-4.3-5.93-10.36-5.93-18.01v-99.75h21.37v99.91c0,1.65.33,2.88.99,3.67.36.43,1.01,1,2.49,1h10.17Z"></path><path class="cls-1" d="m995.42,294.83v19.76h-12.23c-7.19,0-12.85-2.22-16.85-6.58-3.94-4.3-5.94-10.36-5.94-18.01v-99.75h21.37v99.91c0,1.65.34,2.88.99,3.67.36.43,1.01,1,2.49,1h10.17Z"></path><path class="cls-1" d="m472.51,197.11l-.8-2.27h-23.45l-42.62,120.83h23.2l12.31-35.9h37l12.66,35.9h23.71l-42-118.56Zm-25.86,64.44l10.07-28.65c.95-2.91,1.9-5.94,2.84-9.18.88,2.98,1.86,6.12,3.03,9.41l10.04,28.41h-25.97Z"></path><path class="cls-1" d="m605.61,252.27c-1.89-5.48-4.67-10.38-8.26-14.45-7.2-8.17-17.28-12.68-28.38-12.68s-20.49,3.61-27.54,10.49l-.43-8.63h-20.84l.15,3.5c.37,8.13.7,16.29.7,26.61v92.08h22.25v-39.29c6.02,4.89,14.18,7.62,23.07,7.62,11.37,0,21.8-4.27,29.38-12.02,8.36-8.54,12.77-20.77,12.77-35.36,0-6.36-.99-12.4-2.88-17.88Zm-41.92,46.87c-9.38,0-17.33-5.95-19.81-14.82-.3-1.61-.62-3.47-.62-5.36v-14.05c0-1.74.54-3.82.95-5.26,2.5-9.39,10.73-15.94,20.01-15.94,15.08,0,21.83,13.62,21.83,27.13,0,17.46-8.57,28.31-22.36,28.31Z"></path><path class="cls-1" d="m688.71,237.83c-7.2-8.18-17.28-12.68-28.38-12.68s-20.49,3.61-27.54,10.49l-.43-8.63h-20.84l.15,3.5c.37,8.13.7,16.29.7,26.61v92.08h22.26v-39.29c6.02,4.89,14.18,7.62,23.06,7.62,11.37,0,21.81-4.27,29.39-12.02,8.35-8.54,12.77-20.77,12.77-35.36,0-12.71-3.96-24.19-11.14-32.32Zm-33.13,5.88c15.08,0,21.83,13.62,21.83,27.13,0,17.46-8.57,28.31-22.36,28.31-9.38,0-17.33-5.95-19.81-14.82-.32-1.68-.62-3.47-.62-5.36v-14.05c0-1.71.5-3.69.94-5.26,2.51-9.39,10.74-15.94,20.01-15.94Z"></path><path class="cls-1" d="m808.94,249.02v60.57l-2.31.8c-8.52,2.95-21.96,6.46-37.56,6.46-19.72,0-34.99-5.23-46.7-16-11.19-10.4-17.6-26.78-17.6-44.93.09-18.26,6.61-33.85,18.86-45.1,12.22-11.23,29.09-17.17,48.79-17.17,14.04,0,25.24,2.88,31.04,5.58l2.67,1.24-5.65,18.42-3.63-1.55c-5.03-2.15-12.38-4.62-24.78-4.62-27.24,0-44.16,16.3-44.16,42.53s16.18,42.7,42.22,42.7c8.99,0,14.19-1.08,16.91-1.95v-28.43h-24.08v-18.56h45.99Z"></path><path class="cls-1" d="m892.81,311.71c-.91-4.8-1.35-11.03-1.35-19.04v-30.65c0-10.18-2.28-18.44-6.8-24.57-6.01-8.16-15.77-12.3-29.03-12.3-11.02,0-21.9,2.85-29.85,7.82l-2.27,1.43,5.85,16.34,3.73-2.32c5.59-3.48,13.16-5.56,20.26-5.56,10.1,0,15.29,4.58,15.81,13.98-19.37.39-34.02,4.84-42.44,12.92-5.75,5.51-8.67,12.53-8.67,20.88,0,7.05,2.67,13.62,7.51,18.52,5.41,5.47,13.02,8.37,21.99,8.37s17.57-3,23.9-8.33l.77,6.47h21.33l-.74-3.96Zm-41.22-11.9c-2.61,0-11.11-.78-11.11-10.87,0-3.64,1.12-6.38,3.52-8.65,4.45-4.19,13.04-6.37,25.56-6.48v10.89c0,1.07-.25,2.37-.69,3.66-1.87,5.28-7.52,11.45-17.27,11.45Z"></path><path class="cls-1" d="m1079.85,255.78c-1.06-4.84-2.99-10.38-6.49-15.48-6.79-9.92-17.47-15.16-30.9-15.16-25.54,0-43.39,19.55-43.39,47.55,0,13.14,4.17,24.29,12.06,32.25,8.07,8.13,19.57,12.42,33.26,12.42,14.36,0,24.1-2.93,29.74-5.38l2.61-1.14-4.25-17.22-3.79,1.55c-5.04,2.06-11.23,3.97-22.2,3.97-14.8,0-23.99-7.89-25.49-21.74h59.2l.42-3.7c.2-1.61.46-3.81.46-6.59,0-2.33-.19-6.48-1.25-11.32Zm-38.62-13.26c5.15,0,9.28,1.48,12.26,4.41,3.92,3.85,5.19,9.29,5.56,13.09h-37.38c1.44-5.53,6.11-17.5,19.56-17.5Z"></path><path class="cls-1" d="m1140.76,227.01l.02.04v-.04h-.02Z"></path><path class="cls-1" d="m1140.77,227.01h-.02l.02.04v20.19l-4.23-.9c-1.39-.3-2.74-.43-4.52-.43-8.78,0-15.41,6.27-17.32,16.38-.32,1.84-.64,4.07-.64,6.34v47.04h-22.26v-59.74c0-10.55-.22-18.37-.69-25.34l-.25-3.58h20.64l.27,8.24c5.36-6.41,12.94-10.1,21.14-10.1,1.93,0,3.45.17,5.24.61l2.63.64v.62Z"></path><path class="cls-1" d="m1144.9,227.01l.02.04v-.04h-.02Z"></path><path class="cls-1" d="m1235.09,227.01l-25.01,62.97c-12.06,30.6-19.67,43.89-30.16,52.64-9.33,7.94-18.15,9.98-20.64,10.42l-3.07.54-5.73-18.56,3.25-1c2.02-.62,7.26-2.5,12.34-6.64l.05-.04c4.78-3.64,9.27-9.38,12.03-15.36l.03-.08c.29-.61.8-1.74.89-2.16-.02-.22-.15-.86-.83-2.67l-33.34-80.01v-.04h24.43l19.49,50.66c.78,2.18,1.57,4.48,2.33,6.77.73-2.3,1.52-4.74,2.35-7.07l17.67-50.35h23.9Z"></path><rect class="cls-2" x="73.99" y="82.81" width="254.01" height="254.01" rx="57.54" ry="57.54"></rect><path class="cls-1" d="m202.07,168.6c-22.9,0-41.8-18.53-43.03-42.17l6.39-.33c1.05,20.25,17.14,36.11,36.64,36.11s35.58-15.85,36.64-36.09l6.39.33c-1.23,23.64-20.13,42.15-43.02,42.15Z"></path><path class="cls-1" d="m131.38,209.86v34.22h-8.03v-14.73h-14.22v14.73h-8.03v-34.22h8.03v13.66h14.22v-13.66h8.03Z"></path><path class="cls-1" d="m169.75,209.81v20.07c0,10.01-5.81,14.68-15.25,14.68s-14.71-4.58-14.71-14.64v-20.11h8.03v20.69c0,6.01,2.77,8.63,6.89,8.63,4.34,0,7-2.54,7-8.63v-20.69h8.03Z"></path><path class="cls-1" d="m196.29,209.86l11.67,34.22h-8.41l-2.98-9.03h-11.18l-2.88,9.03h-8.14l11.83-34.22h10.09Zm-9.77,20.2h8.9l-2.5-7.79c-.65-2.14-1.36-4.89-1.9-6.99h-.16c-.54,2.14-1.25,4.94-1.85,6.94l-2.5,7.83Z"></path><path class="cls-1" d="m247.18,209.86h8.09l-9.88,34.22h-8.52l-3.58-14.51c-.92-3.56-1.57-7.03-2.12-10.9h-.11c-.71,3.87-1.47,7.3-2.5,10.9l-4.07,14.51h-8.47l-9.17-34.22h8.52l3.2,14.77c.87,4.09,1.68,8.32,2.28,11.97h.16c.6-3.83,1.63-7.79,2.71-12.06l3.8-14.68h7.92l3.53,14.86c.92,4,1.74,7.79,2.28,11.79h.16c.65-4.05,1.47-7.92,2.33-12.01l3.42-14.64Z"></path><path class="cls-1" d="m284.94,238.56v5.52h-23.34v-34.22h22.47v5.52h-14.44v8.28h13.62v5.38h-13.62v9.52h15.3Z"></path><path class="cls-1" d="m293.01,244.07v-34.22h8.03v34.22h-8.03Z"></path></g></svg>